External Loads File
version=1
nRows=93
nColumns=13
Range=5.000000e-03-10 seconds
endheader
time 	forceRightX 	forceRightY 	forceRightZ 	pointRightX 	pointRightY 	pointRightZ 	forceLeftX 	forceLeftY 	forceLeftZ 	pointLeftX 	pointLeftY 	pointLeftZ 		
2.505000 -65.866772 -38.838033 -0.000000 0.200085 0.196892 -0.124381 -83.977967 465.764774 -0.000000 0.429958 0.423841 -0.367899
2.510000 -63.621768 -31.672349 -0.000000 0.196465 0.201790 -0.124353 -86.071786 477.600132 -0.000000 0.432961 0.418431 -0.368052
2.515000 -60.646856 -24.892927 -0.000000 0.192991 0.207040 -0.124386 -87.610602 490.026094 -0.000000 0.435917 0.412929 -0.368075
2.520000 -57.133173 -19.031212 -0.000000 0.189764 0.212353 -0.124253 -89.168075 502.797491 -0.000000 0.438546 0.407262 -0.368166
2.525000 -53.347961 -14.463763 -0.000000 0.186630 0.217861 -0.124245 -90.356189 515.831580 -0.000000 0.440942 0.401456 -0.368312
2.530000 -49.537237 -11.512899 -0.000000 0.183764 0.223730 -0.124155 -91.025100 528.988805 -0.000000 0.443213 0.395532 -0.368414
2.535000 -45.919043 -10.401667 -0.000000 0.181081 0.229758 -0.124043 -91.493119 542.039214 -0.000000 0.445326 0.389548 -0.368453
2.540000 -42.697965 -11.120372 -0.000000 0.178523 0.236010 -0.123932 -91.432476 554.879704 -0.000000 0.447391 0.383410 -0.368287
2.545000 -40.020482 -13.554266 -0.000000 0.176073 0.242358 -0.123791 -91.328566 567.315951 -0.000000 0.449310 0.377194 -0.368402
2.550000 -37.990632 -17.405129 -0.000000 0.173820 0.248895 -0.123808 -91.324981 579.252311 -0.000000 0.451117 0.370989 -0.368355
2.555000 -36.682791 -22.253856 -0.000000 0.171703 0.255459 -0.123882 -91.431840 590.617226 -0.000000 0.452761 0.364612 -0.368450
2.560000 -36.164757 -27.612229 -0.000000 0.169647 0.262191 -0.123780 -91.427461 601.363010 -0.000000 0.454202 0.358087 -0.368616
2.565000 -36.431215 -33.063174 -0.000000 0.167973 0.268930 -0.123791 -92.190075 611.280593 -0.000000 0.455517 0.351651 -0.368783
2.570000 -37.510642 -38.147367 -0.000000 0.166425 0.275691 -0.123875 -93.096279 620.411267 -0.000000 0.456747 0.345111 -0.369065
2.575000 -39.348240 -42.537527 -0.000000 0.165455 0.282460 -0.123905 -94.463504 628.687531 -0.000000 0.457891 0.338547 -0.368933
2.580000 -41.857959 -45.991566 -0.000000 0.164657 0.289148 -0.123963 -96.394912 636.130208 -0.000000 0.458836 0.332031 -0.368901
2.585000 -44.986687 -48.319057 -0.000000 0.164256 0.295852 -0.124069 -98.116770 642.969388 -0.000000 0.459653 0.325298 -0.368797
2.590000 -48.526727 -49.568729 -0.000000 0.164262 0.302469 -0.124140 -100.665177 649.244964 -0.000000 0.460218 0.318762 -0.368744
2.595000 -52.380222 -49.806771 -0.000000 0.164678 0.308971 -0.124264 -103.379811 655.326379 -0.000000 0.460714 0.312152 -0.368871
2.600000 -56.419007 -49.251149 -0.000000 0.165210 0.315509 -0.124256 -105.939191 661.575002 -0.000000 0.460948 0.305527 -0.368572
2.605000 -60.488291 -48.244144 -0.000000 0.166010 0.322008 -0.124305 -108.502229 668.282687 -0.000000 0.460883 0.298943 -0.368461
2.610000 -64.469437 -47.105649 -0.000000 0.167018 0.328402 -0.124132 -110.834849 675.782142 -0.000000 0.460634 0.292288 -0.368435
2.615000 -68.222697 -46.104550 -0.000000 0.168357 0.335015 -0.124197 -112.658696 684.367447 -0.000000 0.460056 0.285875 -0.368474
2.620000 -71.579507 -45.421060 -0.000000 0.170032 0.341523 -0.124186 -113.546275 694.285225 -0.000000 0.459392 0.279278 -0.368205
2.625000 -74.342809 -45.167670 -0.000000 0.171765 0.348040 -0.124214 -113.278614 705.666225 -0.000000 0.458242 0.272656 -0.368179
2.630000 -76.342302 -45.355348 -0.000000 0.173642 0.354694 -0.124273 -111.555522 718.583290 -0.000000 0.456870 0.266059 -0.368097
2.635000 -77.433690 -45.949172 -0.000000 0.175891 0.361374 -0.124298 -108.404680 732.990350 -0.000000 0.455205 0.259552 -0.368016
2.640000 -77.531553 -46.872347 -0.000000 0.178182 0.367960 -0.124179 -104.021593 748.735562 -0.000000 0.453223 0.253042 -0.367935
2.645000 -76.675328 -47.932788 -0.000000 0.180685 0.374645 -0.124311 -97.920597 765.661542 -0.000000 0.451011 0.246558 -0.367886
2.650000 -74.892767 -49.043707 -0.000000 0.183546 0.381165 -0.124629 -91.011923 783.338500 -0.000000 0.448556 0.240308 -0.367766
2.655000 -72.347665 -49.970310 -0.000000 0.186240 0.387735 -0.124524 -83.037741 801.451026 -0.000000 0.445827 0.234100 -0.367701
2.660000 -69.216573 -50.534444 -0.000000 0.189297 0.394012 -0.124666 -74.414441 819.595601 -0.000000 0.442715 0.228069 -0.367630
2.665000 -65.748914 -50.521631 -0.000000 0.192877 0.400271 -0.124957 -64.922822 837.433959 -0.000000 0.439597 0.222234 -0.367518
2.670000 -62.118496 -49.859457 -0.000000 0.196428 0.406340 -0.125098 -55.443105 854.534036 -0.000000 0.436297 0.216492 -0.367476
2.675000 -58.553327 -48.437682 -0.000000 0.200289 0.412238 -0.125139 -45.252319 870.586150 -0.000000 0.432818 0.210740 -0.367376
2.680000 -55.174598 -46.338338 -0.000000 0.204495 0.417989 -0.125174 -34.685513 885.196659 -0.000000 0.429221 0.205147 -0.367390
2.685000 -52.081023 -43.749859 -0.000000 0.208710 0.423659 -0.125389 -24.199445 897.948615 -0.000000 0.425454 0.199778 -0.367406
2.690000 -49.447897 -40.832327 -0.000000 0.213449 0.429111 -0.125479 -12.771214 908.377649 -0.000000 0.421531 0.194593 -0.367249
2.695000 -47.356359 -37.844554 -0.000000 0.218130 0.434454 -0.125564 -1.312459 915.850521 -0.000000 0.417462 0.189628 -0.367322
2.700000 -45.944865 -34.878805 -0.000000 0.223081 0.439653 -0.125672 11.157755 919.676679 -0.000000 0.413187 0.184842 -0.367221
2.705000 -45.238644 -32.045746 -0.000000 0.228124 0.444633 -0.125830 24.022189 919.117501 -0.000000 0.408773 0.180205 -0.367191
2.710000 -45.263490 -29.359463 -0.000000 0.233382 0.449484 -0.125934 37.481791 913.432737 -0.000000 0.404300 0.175681 -0.367225
2.715000 -46.007939 -26.822181 -0.000000 0.238778 0.454125 -0.126061 51.053331 901.935519 -0.000000 0.399667 0.171434 -0.367161
2.720000 -47.570130 -24.160808 -0.000000 0.245754 0.458400 -0.125527 68.560576 883.693045 -0.000000 0.394900 0.166825 -0.366969
2.725000 -49.667528 -21.698500 -0.000000 0.251837 0.462502 -0.125571 81.359484 858.752831 -0.000000 0.390044 0.163916 -0.366741
2.730000 -52.289451 -19.164972 -0.000000 0.256853 0.466537 -0.126242 91.443240 826.780869 -0.000000 0.385092 0.160656 -0.366474
2.735000 -55.371178 -16.174414 -0.000000 0.262564 0.470222 -0.126417 101.366614 787.495566 -0.000000 0.380166 0.157533 -0.366561
2.740000 -58.713776 -12.512345 -0.000000 0.268623 0.473671 -0.126429 110.307264 741.175050 -0.000000 0.375029 0.154725 -0.366402
2.745000 -62.086479 -8.047087 -0.000000 0.274793 0.476691 -0.126208 116.800129 688.471156 -0.000000 0.369878 0.152203 -0.366253
2.750000 -65.294591 -2.599382 -0.000000 0.280985 0.479690 -0.126449 120.781482 630.106877 -0.000000 0.364636 0.149911 -0.366164
2.755000 -68.158348 3.870865 -0.000000 0.287168 0.482341 -0.126529 121.677616 567.178333 -0.000000 0.359348 0.147914 -0.366164
2.760000 -70.515225 11.360187 -0.000000 0.293444 0.484592 -0.126530 119.690358 500.959107 -0.000000 0.353995 0.146164 -0.366134
2.765000 -72.234215 19.698915 -0.000000 0.299476 0.486766 -0.126429 114.719349 433.139797 -0.000000 0.348496 0.144824 -0.366145
2.770000 -73.163304 28.894950 -0.000000 0.306116 0.488426 -0.126373 108.293395 365.299035 -0.000000 0.342766 0.143786 -0.365982
2.775000 -73.233365 38.727273 -0.000000 0.312670 0.489764 -0.126201 100.571921 299.534133 -0.000000 0.336347 0.143101 -0.364912
2.780000 -72.551444 48.822065 -0.000000 0.318944 0.490778 -0.125778 91.518309 238.077448 -0.000000 0.330050 0.142729 -0.364734
2.785000 -71.075393 59.190342 -0.000000 0.325263 0.491739 -0.125540 82.731872 182.354850 -0.000000 0.323459 0.142646 -0.364509
2.790000 -68.870450 69.688790 -0.000000 0.331469 0.492407 -0.125283 74.903479 133.554052 -0.000000 0.316544 0.142958 -0.364372
2.795000 -65.994816 80.267302 -0.000000 0.337634 0.492738 -0.125014 68.632103 92.215365 -0.000000 0.309339 0.143607 -0.364199
2.800000 -62.591689 90.890000 -0.000000 0.343673 0.492798 -0.124836 64.133915 58.394331 -0.000000 0.301980 0.144593 -0.364000
2.805000 -58.827143 101.580252 -0.000000 0.349527 0.492612 -0.124952 61.363716 31.772125 -0.000000 0.294614 0.145952 -0.363838
2.810000 -54.766272 112.440694 -0.000000 0.355489 0.492324 -0.124478 60.052003 11.795223 -0.000000 0.287376 0.147544 -0.363705
2.815000 -50.588961 123.517501 -0.000000 0.361258 0.491286 -0.124431 59.738611 -2.081616 -0.000000 0.280408 0.149206 -0.363532
2.820000 -46.450898 134.915576 -0.000000 0.366785 0.490181 -0.124289 59.954097 -10.456427 -0.000000 0.273771 0.150968 -0.363370
2.825000 -42.303544 146.851956 -0.000000 0.372206 0.488660 -0.124200 60.280363 -14.078654 -0.000000 0.267380 0.152754 -0.363251
2.830000 -38.167695 159.540213 -0.000000 0.377447 0.486998 -0.124238 60.474609 -13.810445 -0.000000 0.261162 0.154807 -0.363154
2.835000 -33.850764 173.261011 -0.000000 0.382754 0.484844 -0.124368 60.481755 -10.762627 -0.000000 0.255049 0.157022 -0.363125
2.840000 -29.385848 188.224006 -0.000000 0.387788 0.482466 -0.124473 60.388770 -5.984357 -0.000000 0.248919 0.159664 -0.363079
2.845000 -24.667501 204.606590 -0.000000 0.392729 0.479820 -0.124631 60.277793 -0.398891 -0.000000 0.242849 0.162655 -0.363067
2.850000 -19.778304 222.435404 -0.000000 0.397522 0.476930 -0.125162 60.164964 5.435645 -0.000000 0.236900 0.165824 -0.363055
2.855000 -14.892177 241.566509 -0.000000 0.401945 0.473658 -0.125970 59.979254 11.288148 -0.000000 0.231164 0.169203 -0.363063
2.860000 -9.791409 261.711120 -0.000000 0.406512 0.470011 -0.126127 59.657121 17.042718 -0.000000 0.225637 0.172840 -0.363096
2.865000 -4.784039 282.451220 -0.000000 0.410858 0.465666 -0.126271 59.195186 22.779757 -0.000000 0.220315 0.176612 -0.363054
2.870000 -0.180777 303.373755 -0.000000 0.415129 0.461117 -0.126323 58.694471 28.477361 -0.000000 0.215225 0.180678 -0.363072
2.875000 3.877622 324.065649 -0.000000 0.419402 0.456246 -0.126149 58.335317 33.898878 -0.000000 0.210330 0.185033 -0.363057
2.880000 7.221171 344.073039 -0.000000 0.423589 0.450995 -0.125881 58.275588 38.652501 -0.000000 0.205596 0.189743 -0.363099
2.885000 9.626565 362.921191 -0.000000 0.427617 0.445456 -0.125621 58.578930 42.294423 -0.000000 0.201032 0.194812 -0.363008
2.890000 10.728297 380.184395 -0.000000 0.431569 0.439894 -0.125290 59.184711 44.474688 -0.000000 0.196697 0.200061 -0.362912
2.895000 10.831597 395.532056 -0.000000 0.435473 0.434075 -0.125503 60.014820 44.906642 -0.000000 0.192603 0.205653 -0.362790
2.900000 10.544822 408.808788 -0.000000 0.439509 0.427416 -0.125070 60.941996 43.471868 -0.000000 0.188710 0.211378 -0.362674
2.905000 8.296637 420.146337 -0.000000 0.443160 0.421305 -0.125061 61.566992 40.590030 -0.000000 0.185141 0.217360 -0.362608
2.910000 5.141434 429.822320 -0.000000 0.446730 0.414856 -0.125378 61.816445 36.470341 -0.000000 0.181834 0.223400 -0.362518
2.915000 1.142234 438.295514 -0.000000 0.450051 0.408181 -0.125337 61.611522 31.575573 -0.000000 0.178812 0.229606 -0.362402
2.920000 -3.919262 446.096345 -0.000000 0.453129 0.401433 -0.125388 60.998118 26.397529 -0.000000 0.176102 0.235742 -0.362469
2.925000 -9.208369 453.762848 -0.000000 0.456035 0.394510 -0.125548 60.206383 21.175569 -0.000000 0.173785 0.242216 -0.362597
2.930000 -14.676954 461.771331 -0.000000 0.458571 0.387381 -0.125509 59.455658 16.114390 -0.000000 0.171557 0.248759 -0.362601
2.935000 -20.082265 470.483807 -0.000000 0.460934 0.380170 -0.125479 58.945784 11.271604 -0.000000 0.169580 0.255473 -0.362611
2.940000 -25.132292 480.143764 -0.000000 0.462913 0.372728 -0.125391 58.798847 6.640777 -0.000000 0.167840 0.262317 -0.362644
2.945000 -29.639416 490.880033 -0.000000 0.464620 0.365132 -0.125394 59.059827 2.235515 -0.000000 0.166324 0.269255 -0.362675
2.950000 -33.923172 502.687429 -0.000000 0.466122 0.357639 -0.125511 59.726944 -1.829676 -0.000000 0.165157 0.276215 -0.362820
2.955000 -37.126591 515.561643 -0.000000 0.467319 0.349960 -0.125494 60.770237 -5.562050 -0.000000 0.164308 0.283376 -0.362914
2.960000 -39.585236 529.379684 -0.000000 0.468015 0.342155 -0.125225 62.137129 -8.860239 -0.000000 0.163737 0.290508 -0.362969
2.965000 -41.103210 544.025254 -0.000000 0.468791 0.334473 -0.125487 63.752945 -11.751141 -0.000000 0.163518 0.297810 -0.363214
